<?xml version="1.0" encoding="utf-8"?>
<!-- Generator: Adobe Illustrator 23.0.3, SVG Export Plug-In . SVG Version: 6.00 Build 0)  -->
<svg version="1.1" id="Layer_1" xmlns="http://www.w3.org/2000/svg" xmlns:xlink="http://www.w3.org/1999/xlink" x="0px" y="0px"
	 viewBox="0 0 129 129" style="enable-background:new 0 0 129 129;" xml:space="preserve">
<style type="text/css">
	.st0{fill:#FFFFFF;}
</style>
<g>
	<g>
		<path class="st0" d="M64.5,108.9c24.5,0,44.5-19.9,44.5-44.5S89,20,64.5,20S20,40,20,64.5S40,108.9,64.5,108.9z M64.5,26.3
			c21.1,0,38.2,17.2,38.2,38.2s-17.2,38.2-38.2,38.2S26.3,85.5,26.3,64.5S43.4,26.3,64.5,26.3z"/>
		<path class="st0" d="M68.7,86.7c0.6,0.6,1.4,0.9,2.2,0.9c0.8,0,1.6-0.3,2.2-0.9c1.2-1.2,1.2-3.2,0-4.4l-18-18l18-18
			c1.2-1.2,1.2-3.2,0-4.4c-1.2-1.2-3.2-1.2-4.4,0L48.5,62c-0.6,0.6-0.9,1.4-0.9,2.2c0,0.8,0.3,1.6,0.9,2.2L68.7,86.7z"/>
	</g>
</g>
</svg>
