<?xml version="1.0" encoding="utf-8"?>
<!-- Generator: Adobe Illustrator 23.0.3, SVG Export Plug-In . SVG Version: 6.00 Build 0)  -->
<svg version="1.1" id="Layer_1" xmlns="http://www.w3.org/2000/svg" xmlns:xlink="http://www.w3.org/1999/xlink" x="0px" y="0px"
	 viewBox="0 0 512 512" style="enable-background:new 0 0 512 512;" xml:space="preserve">
<style type="text/css">
	.st0{fill:#FFFFFF;}
</style>
<g>
	<g>
		<path class="st0" d="M351.2,88H70.1c-13,0-23.6,10.6-23.6,23.6v168.7c0,13,10.6,23.6,23.6,23.6h18.2v62.8c0,4,2.4,7.6,6.1,9.1
			c1.2,0.5,2.5,0.8,3.8,0.8c2.6,0,5.1-1,7-2.9l69.8-69.8h14c5.5,0,9.9-4.4,9.9-9.9c0-5.5-4.4-9.9-9.9-9.9c0,0-18.6,0-18.8,0
			c-2.3,0.2-4.6,1.1-6.3,2.9l-55.8,55.8c0,0,0-49.4,0-49.7c-0.4-5-4.7-9-9.8-9H70.1c-2.1,0-3.8-1.7-3.8-3.8V111.6
			c0-2.1,1.7-3.8,3.8-3.8h281.1c2.1,0,3.8,1.7,3.8,3.8v64.7c0,5.5,4.4,9.9,9.9,9.9s9.9-4.4,9.9-9.9v-64.7
			C374.8,98.6,364.2,88,351.2,88z"/>
	</g>
</g>
<g>
	<g>
		<path class="st0" d="M441.9,208.9H245.2c-13,0-23.6,10.6-23.6,23.6v115.1c0,13,10.6,23.6,23.6,23.6h123.2l49.9,49.9
			c1.9,1.9,4.4,2.9,7,2.9c1.3,0,2.6-0.2,3.8-0.8c3.7-1.5,6.1-5.1,6.1-9.1v-42.9h6.8c13,0,23.6-10.6,23.6-23.6V232.5
			C465.5,219.5,455,208.9,441.9,208.9z M445.8,347.6c0,2.1-1.7,3.8-3.8,3.8h-16.7c-5.2,0-9.5,4-9.8,9.1c0,0.2,0,29.7,0,29.7
			l-35.9-35.9c0,0-0.1-0.1-0.1-0.1c-0.1-0.1-0.3-0.3-0.4-0.4c-1.7-1.5-4-2.5-6.5-2.5H245.2c-2.1,0-3.8-1.7-3.8-3.8V232.5
			c0-2.1,1.7-3.8,3.8-3.8h196.8c2.1,0,3.8,1.7,3.8,3.8V347.6z"/>
	</g>
</g>
</svg>
