<?xml version="1.0" encoding="utf-8"?>
<!-- Generator: Adobe Illustrator 23.0.3, SVG Export Plug-In . SVG Version: 6.00 Build 0)  -->
<svg version="1.1" id="Capa_1" xmlns="http://www.w3.org/2000/svg" xmlns:xlink="http://www.w3.org/1999/xlink" x="0px" y="0px"
	 viewBox="0 0 512 512" style="enable-background:new 0 0 512 512;" xml:space="preserve">
<style type="text/css">
	.st0{fill:#FFFFFF;}
</style>
<g>
	<g>
		<path class="st0" d="M421.5,393.4l-28.6-47.7c-13.2-22-20.2-47.2-20.2-72.9V231c0-64.3-52.3-116.7-116.7-116.7
			S139.3,166.7,139.3,231v41.8c0,25.7-7,50.9-20.2,72.9l-28.6,47.7c-1.5,2.6-1.6,5.8-0.1,8.4c1.5,2.6,4.3,4.2,7.3,4.2h316.7
			c3,0,5.8-1.6,7.3-4.2C423.1,399.2,423,395.9,421.5,393.4z M112.4,389.3l21-35.1c14.8-24.6,22.6-52.8,22.6-81.5V231
			c0-55.1,44.8-100,100-100s100,44.8,100,100v41.8c0,28.7,7.8,56.9,22.5,81.5l21.1,35.1H112.4L112.4,389.3z"/>
	</g>
</g>
<g>
	<g>
		<path class="st0" d="M256,56c-18.4,0-33.3,14.9-33.3,33.3v33.3c0,4.6,3.7,8.3,8.3,8.3s8.3-3.7,8.3-8.3V89.3
			c0-9.2,7.5-16.7,16.7-16.7c9.2,0,16.7,7.5,16.7,16.7v33.3c0,4.6,3.7,8.3,8.3,8.3c4.6,0,8.3-3.7,8.3-8.3V89.3
			C289.3,71,274.4,56,256,56z"/>
	</g>
</g>
<g>
	<g>
		<path class="st0" d="M292.1,393.4c-2.3-4-7.4-5.3-11.4-3c-4,2.3-5.3,7.4-3,11.4c2.2,3.7,3.3,8.1,3.3,12.4c0,13.8-11.2,25-25,25
			c-13.8,0-25-11.2-25-25c0-4.3,1.2-8.8,3.3-12.4c2.3-4,1-9.1-3-11.4c-4-2.3-9.1-1-11.4,3c-3.7,6.3-5.6,13.5-5.6,20.9
			c0,23,18.7,41.7,41.7,41.7c23,0,41.7-18.7,41.7-41.7C297.7,407,295.7,399.7,292.1,393.4z"/>
	</g>
</g>
</svg>
