<svg id="Layer_1" data-name="Layer 1" xmlns="http://www.w3.org/2000/svg" viewBox="0 0 500 500"><defs><style>.cls-1{fill:#f2f2f2;}</style></defs><title>nateLogo</title><path class="cls-1" d="M36,142.26h41.4c10.62,40.13,21.19,79,31.77,117.05l.6-.06.33-117h29.4l-.57,191.35q-17,2.08-33.88,4.82c-13-45.61-26-92.49-39.14-141.25l-.6,0L65,345.77q-14.56,3-29.07,6.49Z"/><path class="cls-1" d="M189.55,142.26h44.7C245.61,203.77,257,265,268.56,326.72q-16.62-.29-33.23,0-3-18.25-6-36.52v.52q-18.85.39-37.69,1.39-3,18.39-6.1,36.89-15.37,1.13-30.72,2.75C166.42,267.39,178,204.43,189.55,142.26Zm35.87,123.51q-7.33-45.51-14.62-91.22h-.6q-7.27,45.85-14.6,92.12Q210.51,266.06,225.42,265.77Z"/><path class="cls-1" d="M296.39,168.74q-17.26-.12-34.53-.14,0-13.17,0-26.34h102q0,13.65.08,27.29-17.25-.3-34.51-.5.19,80.37.4,160.73-16.57-1.38-33.18-2.16Q296.52,248.18,296.39,168.74Z"/><path class="cls-1" d="M379.75,142.26h90v30q-28.44-1-56.93-1.67.07,26.19.14,52.4,22.6,1.6,45.15,3.67,0,14.81,0,29.62-22.5-2.79-45.1-5,.08,30.45.16,60.9,28.38,4.28,56.56,10.05v30q-44.37-10.65-89.42-16.88Q380,238.81,379.75,142.26Z"/></svg>