<svg id="Layer_1" data-name="Layer 1" xmlns="http://www.w3.org/2000/svg" viewBox="0 0 500 500"><defs><style>.cls-1{fill:#f2f2f2;stroke:#f2f2f2;stroke-miterlimit:10;stroke-width:19px;}</style></defs><title>nateFilter</title><path class="cls-1" d="M356.63,130.4H143.37a10,10,0,0,0-8.93,5.44,10.15,10.15,0,0,0,.79,10.57l78.13,110.06a1,1,0,0,0,.08.11,22.35,22.35,0,0,1,4.38,13.25v89.73a10,10,0,0,0,10,10,10.18,10.18,0,0,0,3.93-.79l43.91-16.74a9.51,9.51,0,0,0,6.54-9.38V269.83a22.42,22.42,0,0,1,4.38-13.25.44.44,0,0,0,.08-.11l78.13-110.06a10.15,10.15,0,0,0,.79-10.57A10,10,0,0,0,356.63,130.4Zm-79.86,119A34.62,34.62,0,0,0,270,269.83v71.38L230,356.49V269.83a34.62,34.62,0,0,0-6.74-20.44L147.38,142.54H352.62Z"/></svg>