<svg id="Layer_1" data-name="Layer 1" xmlns="http://www.w3.org/2000/svg" viewBox="0 0 500 500"><defs><style>.cls-1{fill:#f2f2f2;}</style></defs><title>nateLogout</title><path class="cls-1" d="M-.06,160.92H36.11c9.27,35.2,18.51,69.33,27.75,102.68l.52-.05.3-102.63H90.36l-.51,167.86Q75,330.63,60.26,333C48.88,293,37.5,251.86,26.07,209.08l-.52,0-.21,130.3Q12.61,342-.06,345.08Z"/><path class="cls-1" d="M134.12,160.92h39c9.92,54,19.91,107.73,30,161.85q-14.52-.24-29,0l-5.25-32.05v.46q-16.47.33-32.92,1.21-2.67,16.14-5.33,32.37-13.44,1-26.84,2.4C113.91,270.7,124,215.47,134.12,160.92Zm31.34,108.37q-6.41-39.93-12.78-80h-.52q-6.36,40.23-12.75,80.83Q152.43,269.55,165.46,269.29Z"/><path class="cls-1" d="M227.45,184.15q-15.07-.09-30.16-.12,0-11.55,0-23.11h89.1q0,12,.07,23.94-15.07-.26-30.15-.44.18,70.52.35,141-14.47-1.2-29-1.88Q227.57,253.85,227.45,184.15Z"/><path class="cls-1" d="M300.27,160.92h78.62v26.31q-24.84-.84-49.73-1.46l.12,46q19.75,1.41,39.44,3.21,0,13,0,26-19.65-2.43-39.4-4.33.07,26.7.14,53.42,24.81,3.72,49.41,8.77v26.31q-38.76-9.3-78.11-14.75Z"/><path class="cls-1" d="M411.23,151.86v9.22H375.29v184h13.29V174.42h22.65V361l88-15.89V167.78ZM427.42,263.6c-3,0-5.36-3.14-5.36-7s2.4-7,5.36-7,5.36,3.14,5.36,7S430.38,263.6,427.42,263.6Z"/></svg>